<svg xmlns="http://www.w3.org/2000/svg" width="94" height="40" viewBox="0 0 94 40">
    <g fill="none" fill-rule="evenodd">
        <path fill="#352435" d="M91.65 8.095c-1.29-.933-2.753-1.99-4.36-2.155-1.512-.156-2.885.5-3.743 1.76a5.714 5.714 0 0 0-1.172-.252c-1.305-.135-3.774.104-5.696 3.198-.05.078-.089.146-.116.196a5.098 5.098 0 0 0-3.76-2.269c-1.233-.127-2.478.182-3.554.834-.235-1.257-.976-2.568-2.944-3.388l-.495-.21c-.897-.38-1.744-.74-2.66-.834-1.402-.144-2.359.387-2.914.858-.742.629-1.112 1.45-1.307 2.173-.306-.06-.611-.111-.914-.142a9.173 9.173 0 0 0-2.376.07c-.421-1.23-1.064-2.383-1.89-3.315-1.634-1.833-4.026-3.033-6.562-3.295a10.586 10.586 0 0 0-3.638.262c-3.06.764-3.894 1.015-3.979 1.041a2.924 2.924 0 0 0-.242.087c-.373.152-.702.274-.993.382-1.19.444-2.492.933-3.375 2.326a5.03 5.03 0 0 0-1.575-.854 3.139 3.139 0 0 0-.503-.114c-.15-.026-.3-.05-.457-.08l-.106-.019a10.74 10.74 0 0 0-.773-.108c-2.083-.214-3.683.273-4.94 1.108-.783-2.273-2.725-3.549-3.625-4.136a15.56 15.56 0 0 1-.345-.228c-.684-.47-1.41-.747-2.158-.824-2.307-.238-4.155 1.27-5.494 4.488-.266.642-.844 1.779-1.555 3.113-.496-1.228-1.381-2.317-2.98-2.883l-.148-.049c-.694-.211-1.513-.38-2.504-.515l-.134-.016c-2.416-.237-3.956.712-4.822 1.55C.898 7.735.181 10.921.52 16.185c.004.063.01.125.019.188a197.954 197.954 0 0 0 .366 3.612c.069.63.14 1.28.218 1.937l.019.19c.098.86.205 1.73.314 2.588l.012.123c.007.06.028.202.032.228.707 5.106 2.218 11.953 7.142 12.46l.052.006c.125.012.241.017.367.013l.045.002c.1.005.2.005.301 0 3.593-.175 4.825-2.596 5.175-4.895.831.616 1.514 1.087 2.113 1.403.644.344 1.52.75 2.593.862 1.401.144 2.773-.223 4.306-1.15 1.074-.643 3.306-1.98 3.395-4.302a3.633 3.633 0 0 0-.373-1.726c3.043 1.578 6.866.475 6.866.475.908.345 1.784.633 2.49.85-.043.114-.092.226-.12.344-.09.355-.146.693-.182.921-.05.33-.045.666.018.994.614 3.208 4.612 3.62 8.14 3.983.715.073 1.46.141 2.206.21.729.066 1.46.133 2.17.205l1.035.11c7.846.808 11.4 1.572 13 2.07 2.35.733 3.947 1.182 5.159 1.307 3.52.363 4.648-2.038 5.254-3.328l.046-.099c.38-.803 1.263-2.674.409-4.518l.045.006c1.301.134 2.441-.178 3.378-.89.67 1.684 2.215 2.823 4.265 3.034a7.713 7.713 0 0 0 1.584-.009c1.817-.19 3.33-1.345 4.048-3.09.403-.98.503-2.019.337-2.968.673-.506 1.308-1.326 1.72-2.648.524-1.686 3.033-7.273 4.198-9.667.771-1.6 2.207-4.58-1.032-6.921"/>
        <path fill="#FFF" d="M22.1 31.255c-1.844 1.115-2.84.855-4.038.216-1.198-.632-3.37-2.476-6.524-4.732 0 0 .043.666.1 1.596.003.023 0 .047.003.076.009.142.017.289.031.436l.034.519c.02.265.038.542.057.813.008.094.017.183.018.277.105 2.17-.124 4.054-2.515 4.17h-.012c-.088-.004-.175-.007-.263-.004l-.051-.006c-2.865-.294-4.06-6.356-4.56-9.966-.006-.052-.018-.112-.024-.165l.002-.018c-.113-.889-.225-1.79-.326-2.684-.005-.065-.01-.13-.02-.201a243.774 243.774 0 0 1-.236-2.09 197.145 197.145 0 0 1-.35-3.476c0-.006-.005-.012-.004-.018-.47-7.315 1.369-9.05 3.957-8.796l.023.002c.853.117 1.528.257 2.056.417.006 0 .017.007.022.008 1.377.487 1.632 1.864 1.699 4.522l-.003.023c.003.597.007 1.236.02 1.857.006.223.005.457.01.692.004.193.002.38.008.556-.003.081.001.153.006.223.015 1.218.038 2.128.038 2.128s5.315-9.212 6.412-11.86c1.102-2.65 2.178-3.165 3.32-2.38 1.14.79 3.501 1.94 2.97 4.84-.538 2.9-2.597 6.432-7.607 14.552 0 0 6.109 4.965 7.209 5.751 1.1.78.39 1.614-1.461 2.722"/>
        <path fill="#FFF" d="M30.157 17.499c-.458.075-1.396.213-2.5.316a.359.359 0 0 1-.357-.511c.471-.993 1.479-3.118 2.284-4.809.157-.329.656-.236.682.135.076 1.137.175 2.85.19 4.513a.362.362 0 0 1-.299.356m4.543 4.557c.091-1.29.076-5.018.044-8.052 0 0 .002-.024.001-.07-.011-.686-.016-1.324-.027-1.893-.128-1.769-.612-4.176-2.235-4.706l-.024-.002c-.19-.032-.379-.063-.58-.101l-.017-.002c-3.719-.68-5.122 1.532-6.704 4.926-.046.102-.097.208-.143.314-2.087 4.705-3.778 8.82-3.995 10.302-.218 1.499.295 1.744 1.25 2.065l-.006-.007c1.163.4 2.05-.49 2.723-2.253.001-.011.007-.016.009-.028.032-.09.07-.163.098-.224.361-.829.627-.743 2.516-1.034 2.436-.375 3.174-.79 3.217.156.043.946.218 1.97.43 2.589.217.613 1.289.653 2.398.732 1.102.079.894-.568 1.045-2.712M83.98 13.462c-.792 1.229-7.877 12.757-8.63 13.938-.747 1.18-1.612 1.126-3.14.689-1.529-.433-2.146-1.199-2.302-2.402-.134-1.033-.15-2.462.001-4.336a.247.247 0 0 0-.452-.157c-.677 1.018-1.863 2.832-2.75 4.339-.968 1.632-2.362 1.934-3.669 1.512a2.632 2.632 0 0 1-.264-.098c-1.396-.53-1.765-1.036-1.687-2.76.005-.051.005-.11.012-.173.05-.089.111-.177.168-.27.295-.479.562-.978.795-1.48 1.357-2.903 1.806-7.268 1.022-9.426a5.152 5.152 0 0 0-.596-1.144 4.612 4.612 0 0 0-.87-.926c.043-.973-.041-.619-.01-1.137.16-2.598 1.442-1.811 3.585-.923 1.323.55 1.376 1.23 1.13 2.936-.226 1.58-.469 3.31-1.017 8.022-.034.272.328.39.457.159.982-1.707 2.886-5.04 3.671-6.486.053-.106.116-.21.173-.31 1.641-2.604 5.861-2.187 4.958 2.846-.01.033-.013.068-.016.103a.516.516 0 0 0-.016.092 54.117 54.117 0 0 0-.726 4.33c-.033.267.323.385.463.16 1.097-1.86 3.503-5.918 4.821-8.28.014-.022.023-.044.036-.061 1.342-2.19 2.892-2.141 4.09-1.515.034.014.067.035.095.05 1.556.845 1.443 1.495.668 2.708M90.062 13.752c-1.02 2.098-3.733 8.067-4.355 10.067-.622 2-1.643 1.405-2.882.86-1.238-.553-1.41-.497-1.13-2.597.138-.994.361-1.892 1.165-4.332.075-.227.174-.454.287-.665 1.354-2.501 2.323-4.322 1.972-5.412a.66.66 0 0 1-.008-.44c.341-.885.617-1.543.782-1.826.761-1.282 2.307-.216 4.055 1.047 1.017.735 1.126 1.2.114 3.298M81.978 26.431c-1.908-.113-2.984.686-2.904 2.121.08 1.435 1.207 2.13 3.003 1.942 1.797-.186 2.22-2.495 1.58-3.278a2.363 2.363 0 0 0-1.679-.785M70.07 34.52c-.996 2.116-1.029 2.44-6.966.588-3.139-.978-8.905-1.713-13.852-2.216l-.08-.008c-4.533-.508-10.35-.674-10.628-2.124.035-.225.076-.46.135-.683v-.005c.547-1.166 2.51-1.327 6.844-1.11.092.01.191.015.29.019 2.886.192 7.262.513 14.032 1.035 0 0 6.742 1.016 8.71 1.482 1.976.466 2.515.908 1.514 3.022M47.45 12.328c-.862.877-3.244 2.434-5.036 2.916a.476.476 0 0 1-.575-.603c.279-.896.756-2.415 1.17-3.537.624-1.691 1.095-1.724 3.06-1.791 3.492-.12 2.38 2 1.38 3.015m4.131-5.771c-1.5-1.682-4.262-2.908-7.328-2.147-3.072.766-3.827.999-3.827.999-2.325.948-3.08.835-3.461 2.85-.179.94-.457 2.79-.748 4.709l.008-.023c-.42 2.783-.625 6.372-.518 8.115.062 1.048.11 2.462.031 3.507-.04.505.261.987.742 1.148.005 0 .005.006.01.007 2.051.696 2.125.323 2.748-1.982.616-2.3.381-3.372 1.44-3.543 1.063-.166 5.092-1.472 6.368-2.06.841-.393 2.365-1.16 3.708-2.286.709-.582 1.37-1.27 1.854-2.05a4.424 4.424 0 0 0 .623-1.685c.329-2.003-.498-4.258-1.65-5.56"/>
        <path fill="#FFF" d="M57.62 18.038c-.755 3.023-1.333 3.988-2.52 5.299-1.188 1.317-.784-1.994-.155-4.07.628-2.077 2.348-4.808 2.736-4.259 0 0 .7.008-.06 3.03m4.441-4.135a4.931 4.931 0 0 0-.595-1.144c-1.066-1.52-2.651-1.8-2.651-1.8-1.258-.329-2.521-.324-3.692.076-.774.26-1.297.96-1.386 1.77-.185 1.69-.9 3.587-1.977 4.617-1.783 1.707-2.39 3.629-1.59 5.964.644 1.868 2.006 2.903 3.52 3.235 2.688.593 4.668.27 6.674-2.97.295-.479.562-.978.795-1.48 1.356-2.903 1.692-6.11.902-8.268"/>
        <path fill="#606060" d="M4.358 24.467c.006.06.017.119.022.183-.006-.052-.017-.113-.024-.166l.002-.017z"/>
    </g>
</svg>
